<?xml version="1.0" encoding="utf-8"?>
<!-- Generator: Adobe Illustrator 27.5.0, SVG Export Plug-In . SVG Version: 6.00 Build 0)  -->
<svg version="1.1" id="background" xmlns="http://www.w3.org/2000/svg" xmlns:xlink="http://www.w3.org/1999/xlink" x="0px" y="0px"
	 viewBox="0 0 600 400" style="enable-background:new 0 0 600 400;" xml:space="preserve">
<g>
	<rect y="0" style="fill:#FFFFFF;" width="600" height="400"/>
	<linearGradient id="SVGID_1_" gradientUnits="userSpaceOnUse" x1="2.1618" y1="329.1796" x2="162.8652" y2="209.075">
		<stop  offset="0.0012" style="stop-color:#9759F4"/>
		<stop  offset="1" style="stop-color:#E165FA"/>
	</linearGradient>
	<path style="fill:url(#SVGID_1_);" d="M0,51.013c0.643-0.303,1.27-0.663,1.874-1.08l6.651-4.607
		c5.967-4.139,14.159-2.65,18.29,3.325c4.139,5.967,2.65,14.159-3.325,18.29l9.985-6.911c5.967-4.131,14.159-2.641,18.29,3.325
		c4.131,5.975,2.641,14.159-3.325,18.298L31.812,93.164c-5.975,4.139-7.456,12.323-3.325,18.298
		c4.131,5.967,12.323,7.456,18.29,3.325l16.627-11.518c5.975-4.131,14.168-2.641,18.298,3.325
		c3.741,5.404,2.875,12.635-1.758,17.008l13.804-9.561c5.975-4.131,14.168-2.641,18.298,3.325c4.131,5.967,2.641,14.159-3.325,18.29
		l-16.627,11.518c-5.975,4.131-7.465,12.323-3.325,18.29c2.061,2.988,5.153,4.85,8.452,5.447c3.308,0.606,6.85-0.052,9.838-2.122
		l6.651-4.598c5.975-4.139,14.159-2.65,18.298,3.317c4.131,5.975,2.641,14.168-3.325,18.298l9.976-6.911
		c5.967-4.131,14.159-2.641,18.29,3.325c4.131,5.967,2.65,14.159-3.325,18.29l-16.627,11.518c-5.967,4.131-7.456,12.323-3.325,18.29
		c4.131,5.975,12.323,7.465,18.29,3.325l8.322-5.75c5.967-4.139,14.159-2.65,18.29,3.317c4.131,5.975,2.641,14.168-3.325,18.298
		l-3.325,2.304c-5.967,4.131-7.456,12.323-3.325,18.29c4.131,5.975,12.323,7.456,18.29,3.325l21.624-14.964
		c5.967-4.139,14.159-2.65,18.29,3.325c4.131,5.967,2.641,14.159-3.325,18.29l-26.603,18.42c-5.975,4.139-7.465,12.323-3.325,18.298
		c2.061,2.979,5.153,4.841,8.461,5.447c3.299,0.598,6.841-0.061,9.829-2.122l6.651-4.607c5.975-4.139,14.159-2.65,18.298,3.325
		c4.131,5.967,2.641,14.159-3.325,18.29l9.976-6.911c5.967-4.131,14.159-2.641,18.29,3.325c4.139,5.975,2.65,14.159-3.325,18.298
		l-16.627,11.509c-5.967,4.139-7.456,12.323-3.325,18.298c4.131,5.967,12.323,7.456,18.29,3.325l16.636-11.518
		c5.967-4.131,14.159-2.641,18.29,3.325c4.131,5.967,2.65,14.159-3.325,18.29L281.102,400H0L0,51.013z"/>
	
		<linearGradient id="SVGID_00000031186579172725172700000017456991893954890374_" gradientUnits="userSpaceOnUse" x1="204.1619" y1="372.1627" x2="364.8653" y2="252.0581" gradientTransform="matrix(-1 0 0 -1 802 442.9832)">
		<stop  offset="0.0012" style="stop-color:#9759F4"/>
		<stop  offset="1" style="stop-color:#E165FA"/>
	</linearGradient>
	<path style="fill:url(#SVGID_00000031186579172725172700000017456991893954890374_);" d="M600,348.987
		c-0.643,0.303-1.27,0.663-1.874,1.08l-6.651,4.607c-5.967,4.139-14.159,2.65-18.29-3.325c-4.139-5.967-2.65-14.159,3.325-18.29
		l-9.985,6.911c-5.967,4.131-14.159,2.641-18.29-3.325c-4.131-5.975-2.641-14.159,3.325-18.298l16.627-11.509
		c5.975-4.139,7.456-12.323,3.325-18.298c-4.131-5.967-12.323-7.456-18.29-3.325l-16.627,11.518
		c-5.975,4.131-14.168,2.641-18.298-3.325c-3.741-5.404-2.875-12.635,1.758-17.008l-13.804,9.56
		c-5.975,4.131-14.168,2.641-18.298-3.325c-4.131-5.967-2.641-14.159,3.325-18.29l16.627-11.518
		c5.975-4.131,7.465-12.323,3.325-18.29c-2.061-2.988-5.153-4.85-8.452-5.447c-3.308-0.606-6.85,0.052-9.838,2.122l-6.651,4.598
		c-5.975,4.139-14.159,2.65-18.298-3.317c-4.131-5.975-2.641-14.168,3.325-18.298l-9.976,6.911
		c-5.967,4.131-14.159,2.641-18.29-3.325c-4.131-5.967-2.65-14.159,3.325-18.29l16.627-11.518c5.967-4.131,7.456-12.323,3.325-18.29
		c-4.131-5.975-12.323-7.465-18.29-3.325l-8.322,5.75c-5.967,4.139-14.159,2.65-18.29-3.317c-4.131-5.975-2.641-14.168,3.325-18.298
		l3.325-2.304c5.967-4.131,7.456-12.323,3.325-18.29c-4.131-5.975-12.323-7.456-18.29-3.325l-21.624,14.964
		c-5.967,4.139-14.159,2.65-18.29-3.325c-4.131-5.967-2.641-14.159,3.325-18.29l26.603-18.42c5.975-4.139,7.465-12.323,3.325-18.298
		c-2.061-2.979-5.153-4.841-8.461-5.447c-3.299-0.598-6.841,0.061-9.829,2.122l-6.651,4.607c-5.975,4.139-14.159,2.65-18.298-3.325
		c-4.131-5.967-2.641-14.159,3.325-18.29l-9.976,6.911c-5.967,4.131-14.159,2.641-18.29-3.325
		c-4.139-5.975-2.65-14.159,3.325-18.298l16.627-11.509c5.967-4.139,7.456-12.323,3.325-18.298
		c-4.131-5.967-12.323-7.456-18.29-3.325l-16.636,11.518c-5.967,4.131-14.159,2.641-18.29-3.325
		c-4.131-5.967-2.65-14.159,3.325-18.29L318.898,0L600,0L600,348.987z"/>
</g>
</svg>
