<?xml version="1.0" standalone="no"?>
<!DOCTYPE svg PUBLIC "-//W3C//DTD SVG 20010904//EN"
 "http://www.w3.org/TR/2001/REC-SVG-20010904/DTD/svg10.dtd">
<svg version="1.0" xmlns="http://www.w3.org/2000/svg"
 width="626.000000pt" height="416.000000pt" viewBox="0 0 626.000000 416.000000"
 preserveAspectRatio="xMidYMid meet">

<g transform="translate(0.000000,416.000000) scale(0.100000,-0.100000)"
fill="#000000" stroke="none">
<path d="M0 2080 l0 -2080 1548 1 c1289 0 1555 2 1597 14 l50 14 -60 2 -60 1
50 8 c28 4 63 13 79 19 16 6 31 9 34 7 2 -3 -8 -8 -22 -12 -24 -6 -25 -8 -10
-19 9 -6 14 -17 10 -23 -5 -9 370 -12 1518 -12 l1526 0 0 530 c0 292 -2 530
-4 530 -2 0 -17 -7 -32 -15 -16 -8 -36 -15 -44 -15 -9 0 -40 -16 -70 -35 -30
-19 -59 -35 -63 -35 -14 0 -191 -89 -234 -117 -31 -21 -41 -33 -37 -46 5 -17
-19 -46 -38 -47 -13 0 -9 18 8 35 10 9 14 26 11 41 -2 13 -2 22 1 20 10 -10
62 29 62 46 0 10 4 18 10 18 5 0 7 -8 5 -17 -3 -10 1 -4 10 14 16 35 33 46
170 108 50 23 121 63 158 88 38 26 72 47 78 47 5 0 9 576 9 1505 l0 1505 -130
0 -130 0 -61 -62 c-79 -81 -179 -213 -179 -237 0 -10 -7 -21 -15 -25 -8 -3
-14 -9 -13 -13 5 -27 -31 -113 -67 -157 -46 -57 -75 -110 -75 -138 0 -10 -15
-35 -34 -56 -19 -21 -38 -51 -41 -67 -13 -58 -13 -58 -44 -36 -33 23 -41 19
-41 -21 0 -54 -27 -46 -101 30 -38 39 -69 77 -69 84 -1 9 -5 7 -14 -4 -12 -16
-14 -15 -25 10 -23 49 -25 128 -6 197 25 92 78 149 198 211 66 34 109 65 152
109 33 34 74 71 90 83 24 16 31 27 30 54 l-1 33 -162 3 c-97 1 -162 -1 -162
-7 0 -5 -24 -38 -52 -74 -29 -36 -60 -75 -68 -87 -8 -12 -30 -42 -47 -65 -40
-53 -51 -103 -40 -175 4 -30 8 -68 7 -84 0 -15 4 -33 9 -40 11 -14 2 -166 -10
-166 -5 0 -9 7 -9 15 0 8 -6 12 -14 9 -12 -5 -24 13 -50 76 -8 19 3 -106 11
-127 4 -11 2 -14 -5 -9 -8 4 -7 -9 3 -41 8 -26 12 -59 9 -73 -4 -19 -3 -22 5
-10 9 12 11 11 11 -8 0 -32 -16 -19 -41 31 -54 108 -165 215 -291 281 -103 55
-119 52 -28 -5 124 -76 267 -227 268 -282 0 -4 3 -24 7 -45 8 -50 -8 -148 -34
-205 -22 -49 -95 -127 -119 -127 -8 0 -12 -6 -8 -15 4 -10 -3 -17 -22 -21 -15
-4 -32 -12 -37 -19 -14 -17 -42 -21 -89 -11 -35 7 -42 5 -60 -18 -18 -22 -29
-25 -91 -27 -84 -2 -96 -8 -124 -54 -21 -36 -22 -36 -69 -29 -60 8 -97 42
-165 153 l-52 85 -3 -71 c-2 -56 -7 -73 -20 -78 -10 -3 -21 0 -28 9 -6 9 -13
13 -16 11 -3 -3 -17 9 -30 28 -14 18 -44 42 -67 52 -25 12 -51 36 -68 63 -29
45 -43 53 -44 25 0 -13 -3 -11 -12 7 -12 26 -37 56 -37 45 0 -3 6 -18 14 -33
7 -15 33 -81 56 -147 24 -66 46 -124 50 -130 3 -5 15 -32 25 -60 10 -27 32
-77 48 -110 17 -33 31 -76 33 -96 1 -19 11 -56 23 -81 11 -26 21 -56 21 -68 0
-26 56 -86 63 -67 3 6 6 2 6 -10 1 -13 4 -23 9 -23 12 0 30 -52 35 -105 9 -82
27 -179 37 -190 6 -7 2 -23 -11 -44 -15 -26 -25 -32 -46 -29 -42 5 -69 54 -77
138 -8 78 -35 169 -72 242 -24 46 -56 82 -39 42 41 -96 52 -152 39 -201 -11
-42 -95 -25 -164 33 -19 16 -31 23 -26 17 4 -7 3 -13 -3 -13 -12 0 -8 -13 26
-89 33 -73 29 -85 -30 -89 -42 -3 -47 -5 -47 -28 0 -15 -6 -24 -15 -24 -18 0
-18 -1 -6 -34 9 -23 8 -24 -20 -21 -34 5 -33 7 -14 -38 21 -50 19 -54 -10 -27
-22 21 -25 21 -25 6 0 -15 -3 -16 -15 -6 -10 8 -15 9 -15 2 0 -36 -125 75
-192 170 -39 55 -60 64 -79 35 -12 -18 -66 23 -121 90 -69 85 -72 90 -97 193
-20 78 -73 178 -107 198 -6 4 -31 30 -55 58 -25 28 -52 49 -60 46 -12 -3 -12
-2 0 6 19 14 9 82 -20 128 -29 48 -37 26 -10 -27 26 -49 26 -60 2 -91 -17 -21
-19 -39 -17 -144 2 -116 3 -121 39 -189 42 -80 67 -148 67 -180 0 -13 21 -45
50 -76 28 -30 61 -65 73 -79 86 -99 126 -137 157 -151 19 -9 42 -24 50 -34 14
-17 14 -17 -15 -1 -16 9 -38 22 -47 28 -25 18 -30 6 -22 -49 4 -26 9 -42 11
-36 3 7 18 -14 35 -47 17 -33 35 -57 40 -54 5 3 8 0 7 -7 -2 -8 3 -31 10 -52
31 -90 -16 -125 -98 -75 -25 16 -56 28 -69 28 -21 0 -24 -4 -20 -28 3 -15 9
-36 13 -46 6 -14 5 -17 -4 -12 -6 4 -2 -9 9 -28 13 -25 16 -36 7 -36 -6 0 -4
-5 6 -11 9 -5 17 -14 17 -19 0 -6 -32 10 -70 35 -46 29 -66 38 -58 26 7 -11
23 -23 36 -26 14 -3 22 -9 18 -12 -3 -4 3 -16 13 -27 11 -12 23 -41 27 -65 8
-48 13 -46 -56 -25 -16 5 -19 3 -14 -11 4 -10 1 -20 -6 -25 -15 -9 -5 -30 16
-30 19 0 18 -18 -5 -63 -10 -20 -14 -34 -8 -30 6 3 7 1 3 -5 -11 -18 -117 -53
-140 -46 -21 6 -21 6 -1 -10 20 -17 20 -17 -5 -11 -48 12 -67 27 -89 72 -23
48 -39 54 -21 9 6 -18 6 -25 0 -21 -12 7 -13 -7 -2 -21 4 -5 -2 0 -13 12 -25
26 -58 44 -82 44 -11 -1 -1 -11 27 -28 32 -19 40 -28 27 -30 -22 -5 -22 -17 3
-42 11 -11 20 -22 20 -25 0 -3 0 -11 0 -18 0 -28 93 -117 168 -160 43 -25 85
-54 92 -64 14 -17 14 -17 -5 -2 -35 28 -113 70 -127 68 -17 -3 -106 24 -145
45 -29 14 -106 38 -253 76 -36 9 -75 22 -87 28 -21 12 -21 11 -7 -17 19 -39
33 -184 19 -198 -6 -6 -34 -18 -63 -27 -52 -17 -63 -29 -39 -40 8 -3 7 -5 -3
-4 -19 2 -53 -9 -110 -36 -35 -16 -64 -21 -134 -21 -63 0 -91 4 -94 13 -2 6
-13 12 -25 12 -22 1 -21 1 3 22 l25 21 -87 -6 c-48 -3 -97 -11 -109 -17 -11
-7 -23 -10 -25 -7 -3 2 12 13 33 23 34 16 35 19 15 22 -29 4 -110 -23 -142
-48 l-25 -20 27 0 c14 0 28 -6 30 -12 3 -9 11 -8 30 4 32 21 104 36 94 19 -4
-6 -14 -11 -22 -11 -13 0 -13 -2 -2 -14 8 -7 23 -16 35 -20 12 -4 24 -13 27
-21 8 -21 40 -19 86 5 45 23 55 19 13 -5 -18 -10 -21 -14 -8 -11 68 17 80 18
70 8 -14 -14 -125 -42 -169 -42 -43 0 -86 36 -87 72 l0 23 -10 -24 c-5 -13 -7
-39 -3 -58 4 -19 2 -39 -5 -46 -6 -8 -10 -30 -9 -51 1 -28 4 -33 10 -22 5 9
14 16 19 16 6 0 1 -14 -11 -31 -14 -19 -28 -28 -38 -24 -13 5 -13 3 -1 -12 13
-16 13 -16 -10 0 -33 22 -38 51 -8 36 22 -10 22 -10 2 7 -31 26 -97 53 -130
54 -26 1 -27 3 -10 10 14 6 2 9 -40 9 -44 0 -55 -3 -40 -10 15 -6 6 -8 -35 -8
-73 2 -76 1 -94 -16 -9 -9 -17 -11 -21 -5 -3 5 -2 10 3 10 6 0 8 9 5 21 -4 15
2 28 23 45 l29 24 -29 -6 c-41 -10 -25 11 19 26 19 6 35 15 35 20 0 4 16 11
35 14 19 4 37 11 40 16 4 6 -4 6 -20 0 -15 -6 -34 -10 -43 -9 -9 0 1 7 23 14
142 47 205 65 229 65 14 0 26 4 26 9 0 5 19 12 43 15 140 19 157 27 92 45 -41
11 -83 39 -147 97 l-46 43 31 -6 c18 -3 37 -13 42 -22 6 -9 26 -32 46 -52 38
-37 104 -58 123 -39 7 7 -4 10 -30 11 -65 1 -9 17 64 18 34 1 62 5 62 11 0 13
-52 71 -58 65 -3 -2 1 -11 8 -20 18 -22 -2 -19 -52 6 -39 20 -41 22 -23 35 10
8 13 14 7 14 -7 0 -12 7 -12 15 0 24 25 17 53 -15 15 -16 33 -30 41 -30 8 0
17 -6 19 -12 3 -8 6 -6 6 5 1 9 -4 17 -11 17 -6 0 -4 6 7 13 13 10 16 21 12
43 -3 16 -4 23 -1 16 3 -7 15 -17 26 -23 18 -10 20 -9 15 5 -10 26 -2 19 36
-30 l36 -45 69 -3 c66 -2 69 -1 64 18 -3 12 -19 41 -37 66 -41 58 -56 97 -20
55 14 -17 22 -22 19 -12 -6 15 0 14 32 -8 38 -26 60 -45 37 -31 -7 4 -13 3
-13 -2 0 -6 7 -12 15 -16 8 -3 21 -20 30 -38 l15 -33 -3 63 c-2 34 1 62 5 62
5 0 8 21 7 46 -2 39 -8 50 -41 77 l-38 32 14 40 c10 28 22 43 41 50 29 10 30
10 97 -77 15 -20 45 -45 68 -57 l41 -21 6 31 c6 30 6 31 58 24 42 -4 52 -3 52
9 0 8 -4 13 -9 10 -14 -9 -36 15 -73 78 -39 65 -40 68 -24 68 5 0 8 -4 4 -9
-3 -5 -1 -12 5 -16 28 -17 -21 90 -83 183 -20 29 -32 50 -27 47 5 -3 -2 18
-17 47 -24 49 -129 187 -202 266 -17 18 -42 48 -57 67 -14 19 -31 35 -38 35
-6 0 -4 -5 4 -10 11 -7 12 -10 2 -10 -8 0 -16 9 -19 20 -3 11 -9 20 -14 20 -5
0 -9 7 -9 15 0 8 -4 14 -9 13 -5 -2 -41 24 -80 57 -39 33 -112 86 -161 117
-50 31 -87 59 -82 62 5 3 87 -46 181 -109 95 -63 175 -115 178 -115 13 0 -160
177 -227 231 -25 20 -55 40 -68 43 -12 4 -22 12 -22 18 0 19 -103 103 -182
147 -54 30 -312 270 -292 271 5 1 -7 9 -26 20 l-35 18 65 -5 c40 -4 75 -13 93
-25 31 -22 36 -18 10 8 -17 17 -17 17 4 12 15 -4 20 -2 17 7 -3 7 -14 11 -25
8 -10 -3 -19 0 -19 6 0 6 8 8 18 4 16 -6 16 -5 1 13 -9 10 -19 26 -23 34 -9
19 21 -15 99 -110 104 -126 169 -157 236 -109 16 11 51 24 77 29 26 4 41 8 33
9 -11 1 -11 4 0 17 7 9 15 22 16 30 13 51 14 76 4 87 -12 15 -24 82 -30 173
-1 5 -19 29 -42 51 -30 31 -42 52 -46 83 -3 22 -10 43 -14 46 -35 21 21 37 78
22 62 -15 98 -60 109 -134 l8 -59 6 45 6 45 12 -42 c12 -42 43 -73 71 -73 8 0
24 -9 36 -20 18 -17 27 -19 49 -10 40 15 92 -13 128 -69 23 -36 28 -40 23 -18
-7 26 9 40 17 16 2 -7 11 -5 23 7 10 11 21 19 24 19 8 0 4 119 -4 146 -11 32
-7 131 5 143 5 5 10 18 10 29 0 10 4 16 9 12 10 -6 5 41 -6 58 -3 6 -1 7 6 3
9 -6 10 0 5 20 -5 21 -4 25 6 19 10 -6 11 -4 5 11 -11 24 -8 123 5 149 8 17
29 67 35 85 8 24 39 86 44 90 3 3 12 18 19 33 7 16 26 34 46 42 18 8 57 41 86
75 55 64 61 67 82 47 16 -16 66 -16 76 -1 4 6 23 21 42 33 19 11 32 21 29 21
-4 0 10 18 30 40 35 39 38 40 96 38 33 -1 70 -8 83 -16 12 -8 22 -10 22 -5 0
5 17 8 37 6 20 -1 43 3 51 9 7 7 33 13 57 13 39 2 45 -1 56 -27 6 -15 15 -28
20 -28 5 0 9 -8 9 -19 0 -10 6 -24 14 -30 8 -7 22 -34 32 -62 10 -27 22 -49
26 -49 4 0 8 -7 8 -16 0 -8 4 -13 9 -9 5 3 12 -3 16 -14 3 -11 14 -19 25 -18
10 1 16 5 14 9 -3 5 -11 6 -17 2 -7 -3 -4 1 6 9 16 14 16 15 -5 30 -20 14 -20
16 -5 16 16 1 16 4 -3 41 -13 26 -20 59 -20 99 0 59 -15 111 -32 111 -4 0 -8
9 -8 20 0 11 -5 20 -11 20 -5 0 -7 5 -4 10 11 17 24 11 27 -13 3 -21 6 -23 36
-15 18 5 30 13 28 17 -3 5 5 9 19 9 14 0 22 -4 20 -9 -10 -16 18 -25 140 -43
11 -1 26 5 33 16 7 10 24 18 37 18 13 0 26 4 29 9 11 17 41 4 42 -18 2 -34 20
-47 33 -23 6 11 26 23 45 26 19 4 37 12 40 19 3 8 11 5 24 -10 11 -13 28 -23
37 -23 9 0 23 -7 31 -15 29 -29 42 -17 53 48 6 35 11 72 12 83 0 18 1 18 9 -1
7 -17 9 -15 9 12 1 17 5 33 10 35 4 2 12 13 15 26 l7 22 -390 0 -391 0 0 -24
c0 -13 11 -40 25 -60 25 -36 26 -74 1 -41 -10 15 -12 14 -12 -4 0 -12 3 -21 6
-21 4 0 7 -7 7 -15 0 -23 -12 -18 -45 21 -31 36 -33 58 -6 68 8 3 14 19 14 41
l0 35 -1675 0 -1675 0 0 -2080z m2411 1173 c13 -16 12 -17 -3 -4 -10 7 -18 15
-18 17 0 8 8 3 21 -13z m3678 -389 c8 -7 -114 -2 -139 6 -14 4 11 5 55 2 44
-2 82 -6 84 -8z m-3783 -46 l19 -21 -27 18 c-29 18 -34 25 -20 25 5 0 17 -10
28 -22z m-2173 -433 c20 -29 20 -29 1 -12 -12 9 -35 38 -53 65 l-33 47 32 -35
c17 -19 41 -48 53 -65z m4332 -205 c10 -11 16 -20 13 -20 -3 0 -13 9 -23 20
-10 11 -16 20 -13 20 3 0 13 -9 23 -20z m-922 -449 c35 -39 82 -119 75 -127
-14 -13 -126 113 -132 148 -1 7 -5 19 -10 26 -17 27 30 -6 67 -47z m480 -476
c-3 -9 -8 -14 -10 -11 -3 3 -2 9 2 15 9 16 15 13 8 -4z m-73 -110 c-13 -14
-28 -25 -34 -25 -6 0 3 11 19 25 39 31 45 32 15 0z m-1651 -82 c0 -35 -1 -36
-10 -14 -5 14 -7 31 -5 38 10 24 16 13 15 -24z m101 -83 c8 -5 11 -10 5 -10
-5 0 -17 5 -25 10 -8 5 -10 10 -5 10 6 0 17 -5 25 -10z m2929 -44 c15 -8 34
-22 41 -31 10 -12 4 -11 -23 5 -20 12 -58 25 -84 30 l-48 8 43 1 c24 0 55 -5
71 -13z m-3409 -158 c0 -11 -12 -10 -30 2 -12 7 -10 9 8 7 12 0 22 -5 22 -9z
m3792 -30 c-8 -8 -9 -4 -5 13 4 13 8 18 11 10 2 -7 -1 -18 -6 -23z m188 -13
c-11 -25 -29 -65 -40 -90 -15 -35 -23 -43 -37 -38 -15 6 -16 4 -5 -9 11 -14 8
-19 -19 -39 -30 -21 -32 -21 -26 -3 18 62 72 173 94 197 42 43 56 35 33 -18z
m-3347 -72 c-7 -2 -19 -2 -25 0 -7 3 -2 5 12 5 14 0 19 -2 13 -5z m3105 -29
c-12 -12 -17 -13 -23 -3 -5 8 -4 10 4 5 6 -4 14 0 17 9 4 9 9 13 12 10 3 -3
-1 -13 -10 -21z m-28 -29 c0 -8 -4 -15 -10 -15 -14 0 -12 -18 3 -23 13 -4 -9
-2 -33 4 -10 3 -14 -2 -12 -14 3 -17 -2 -18 -40 -13 -30 4 -37 3 -23 -3 24
-11 0 -13 -27 -3 -13 5 -1 14 45 31 34 13 66 30 70 38 11 18 27 17 27 -2z
m-3759 -176 l-10 -24 0 26 c-1 14 2 29 6 33 12 12 14 -9 4 -35z m-448 -56 c-7
-2 -21 -2 -30 0 -10 3 -4 5 12 5 17 0 24 -2 18 -5z m3517 -13 c-12 -8 -12 -10
5 -11 13 0 9 -4 -11 -10 -18 -5 -47 -23 -65 -40 -19 -18 -44 -38 -56 -46 -13
-9 -20 -19 -17 -24 3 -5 2 -9 -3 -8 -19 3 -34 -2 -28 -10 3 -5 0 -13 -6 -17
-8 -4 -9 -3 -5 4 10 16 0 15 -29 -4 -13 -9 -30 -12 -36 -8 -8 4 -9 3 -5 -4 4
-7 -4 -14 -21 -18 -15 -3 -46 -12 -68 -19 -22 -7 -49 -16 -60 -19 -11 -4 25
15 80 42 55 27 120 67 145 89 79 69 146 111 180 112 13 1 13 0 0 -9z m-3453
-16 c-3 -3 -12 -4 -19 -1 -8 3 -5 6 6 6 11 1 17 -2 13 -5z m3223 -67 c0 -2
-12 -14 -27 -28 l-28 -24 24 28 c23 25 31 32 31 24z m20 -10 c0 -2 -15 -16
-32 -33 l-33 -29 29 33 c28 30 36 37 36 29z m-1820 -217 c11 -7 7 -10 -18 -10
-20 0 -31 4 -27 10 8 13 26 13 45 0z"/>
<path d="M5786 574 c-5 -14 -4 -15 9 -4 17 14 19 20 6 20 -5 0 -12 -7 -15 -16z"/>
<path d="M4156 4151 c-8 -12 5 -45 13 -34 9 13 40 -23 32 -36 -10 -16 -39 -3
-47 21 -4 13 -9 17 -16 10 -17 -17 18 -60 46 -55 27 5 30 -2 40 -77 8 -59 32
-125 40 -112 3 5 3 73 -1 151 l-6 141 -48 0 c-26 0 -50 -4 -53 -9z"/>
<path d="M4341 4118 c1 -24 4 -54 8 -67 6 -22 10 -18 34 38 15 34 27 64 27 67
0 2 -16 4 -35 4 -35 0 -35 0 -34 -42z"/>
<path d="M4637 4085 c-10 -42 -16 -110 -16 -153 l2 -77 7 75 c6 64 15 107 46
213 3 10 0 17 -9 17 -9 0 -19 -25 -30 -75z"/>
<path d="M4731 4108 c-13 -69 -25 -195 -17 -187 3 3 13 43 22 90 8 46 24 99
34 117 l19 32 -24 0 c-21 0 -25 -7 -34 -52z"/>
<path d="M4957 4102 c-28 -59 -34 -88 -17 -77 6 3 10 -2 10 -12 0 -11 6 -25
13 -32 9 -11 9 -14 0 -18 -9 -3 -8 -11 3 -29 l16 -24 35 57 c19 32 64 88 101
126 l66 67 -99 0 -100 0 -28 -58z m33 -163 c0 -6 -4 -7 -10 -4 -5 3 -10 11
-10 16 0 6 5 7 10 4 6 -3 10 -11 10 -16z"/>
<path d="M4631 3834 c0 -11 3 -14 6 -6 3 7 2 16 -1 19 -3 4 -6 -2 -5 -13z"/>
<path d="M4698 3517 c56 -59 103 -112 103 -117 2 -17 5 -23 32 -82 15 -32 29
-70 33 -85 3 -15 18 -48 31 -72 22 -37 25 -52 20 -98 -3 -30 -9 -60 -14 -67
-4 -6 0 -4 9 6 23 26 33 118 19 186 -20 105 -74 196 -175 297 -133 132 -179
157 -58 32z"/>
<path d="M3780 3192 c0 -5 9 -17 20 -27 11 -10 19 -25 18 -34 -2 -9 3 -16 10
-16 6 0 11 5 11 10 -2 13 -59 78 -59 67z"/>
<path d="M3866 3087 c3 -10 9 -15 12 -12 3 3 0 11 -7 18 -10 9 -11 8 -5 -6z"/>
<path d="M1893 3015 c-8 -22 6 -33 17 -15 13 20 12 30 0 30 -6 0 -13 -7 -17
-15z"/>
<path d="M4101 2884 c0 -11 3 -14 6 -6 3 7 2 16 -1 19 -3 4 -6 -2 -5 -13z"/>
<path d="M3284 2814 c-1 -15 4 -24 12 -24 17 0 19 36 2 43 -8 3 -14 -5 -14
-19z"/>
<path d="M2350 2710 c0 -5 5 -10 11 -10 5 0 7 5 4 10 -3 6 -8 10 -11 10 -2 0
-4 -4 -4 -10z"/>
<path d="M1630 2563 c0 -10 37 -53 46 -53 8 0 -14 36 -30 50 -9 7 -16 8 -16 3z"/>
<path d="M1955 2530 c16 -16 31 -28 33 -25 6 5 -45 55 -55 55 -4 0 6 -13 22
-30z"/>
<path d="M1807 2503 c-9 -2 -15 -9 -12 -14 10 -15 32 -10 32 6 0 8 -1 14 -1
14 -1 -1 -9 -3 -19 -6z"/>
<path d="M3250 2421 c0 -10 9 -29 20 -42 l21 -24 -7 35 c-3 19 -8 38 -11 43
-8 14 -23 7 -23 -12z"/>
<path d="M2135 2220 c10 -11 20 -20 23 -20 3 0 -3 9 -13 20 -10 11 -20 20 -23
20 -3 0 3 -9 13 -20z"/>
<path d="M2587 2029 c7 -7 15 -10 18 -7 3 3 -2 9 -12 12 -14 6 -15 5 -6 -5z"/>
<path d="M2660 1976 c0 -2 8 -10 18 -17 15 -13 16 -12 3 4 -13 16 -21 21 -21
13z"/>
<path d="M2974 1810 c4 -19 29 -75 57 -125 42 -75 49 -96 44 -125 -4 -29 -3
-32 6 -16 6 10 9 36 6 58 -4 33 -3 37 9 27 18 -15 29 -5 20 18 -9 21 -8 24 2
21 4 -2 6 -5 5 -8 -1 -3 10 -5 23 -5 31 0 30 1 -7 20 -40 21 -105 81 -142 130
l-30 40 7 -35z"/>
<path d="M2660 1545 c0 -5 5 -17 10 -25 5 -8 10 -10 10 -5 0 6 -5 17 -10 25
-5 8 -10 11 -10 5z"/>
<path d="M2880 1499 c-14 -12 -33 -19 -47 -16 -29 5 -30 -11 -3 -88 11 -31 17
-62 13 -68 -3 -5 -1 -7 5 -3 11 7 28 -31 18 -41 -3 -4 -6 2 -6 12 0 14 -3 16
-11 8 -13 -13 -4 -63 12 -63 6 0 13 9 16 20 3 10 15 22 27 26 21 7 21 7 1 15
-19 7 -19 8 2 8 12 1 34 6 48 13 23 10 25 15 19 54 -3 24 -1 50 5 62 9 18 6
25 -26 51 -21 17 -40 31 -43 31 -3 -1 -16 -10 -30 -21z"/>
<path d="M2664 1051 c20 -22 26 -25 26 -13 0 4 -10 13 -22 21 -23 14 -23 14
-4 -8z"/>
<path d="M2706 1055 c10 -25 64 -49 78 -35 8 8 6 9 -8 4 -15 -6 -17 -4 -11 7
4 8 5 11 0 7 -4 -4 -21 2 -36 13 -23 16 -28 17 -23 4z"/>
<path d="M2367 851 c-4 -17 -3 -21 5 -13 5 5 8 16 6 23 -3 8 -7 3 -11 -10z"/>
<path d="M2216 684 c-11 -8 -21 -21 -22 -31 -2 -12 4 -9 24 10 29 29 28 43 -2
21z"/>
<path d="M2291 673 c-13 -3 -47 -21 -75 -40 -30 -21 -41 -32 -26 -27 14 4 33
8 42 8 9 0 14 5 11 10 -3 5 -1 6 6 2 6 -4 20 -2 29 5 9 8 6 1 -8 -15 l-25 -28
30 13 c17 7 35 18 40 25 6 6 25 15 44 19 19 4 29 11 24 16 -11 11 -62 18 -92
12z"/>
<path d="M1450 450 c0 -5 5 -10 10 -10 6 0 10 5 10 10 0 6 -4 10 -10 10 -5 0
-10 -4 -10 -10z"/>
</g>
</svg>
